<svg width="24" height="24" viewBox="0 0 24 24" fill="none" xmlns="http://www.w3.org/2000/svg">
<path d="M22.7428 12.0046V11.9623C22.7216 5.97508 17.8989 1.08887 11.9963 1.08887C6.09366 1.08887 1.24976 5.97508 1.24976 12.0046C1.24976 18.035 6.07174 22.9114 11.9963 22.9114C14.7148 22.9132 17.3294 21.8668 19.2961 19.9899C19.4898 19.8129 19.6053 19.5663 19.6171 19.3042C19.629 19.042 19.5362 18.786 19.3592 18.5923C19.1822 18.3986 18.9356 18.2831 18.6735 18.2713C18.4114 18.2594 18.1553 18.3522 17.9616 18.5292L17.9404 18.5503C17.0919 19.357 16.089 19.9839 14.9921 20.3934C13.8953 20.8029 12.7269 20.9865 11.5573 20.9332C10.3877 20.8799 9.24092 20.5908 8.18581 20.0833C7.1307 19.5758 6.18903 18.8603 5.41732 17.9798L10.0081 10.618V14.0246C10.0081 15.6523 10.6428 16.182 11.1763 16.3301C11.7099 16.4783 12.5101 16.371 13.3769 14.9964L15.8956 10.9066C15.9628 10.7872 16.0407 10.6739 16.1268 10.5673V12.6417C16.1268 14.1644 16.7404 15.3916 17.7976 15.9833C18.2856 16.249 18.8365 16.3776 19.3917 16.3554C19.947 16.3332 20.4858 16.161 20.9511 15.8571C22.1722 15.0644 22.8282 13.6762 22.7428 12.0046ZM19.9498 14.147C19.7802 14.2638 19.5825 14.3332 19.3771 14.3479C19.1716 14.3627 18.966 14.3223 18.7815 14.2309C18.3583 13.9777 18.1037 13.4072 18.1037 12.6243V10.2265C18.1037 9.08546 17.6593 8.2595 16.8983 8.04942C15.6069 7.65949 14.6351 9.25473 14.2746 9.84718L11.9963 13.5062V9.00082C11.9751 7.96479 11.6358 7.35118 11.001 7.15999C10.5779 7.03379 9.94308 7.09802 9.33023 8.02902L4.23166 16.1941C3.55338 14.9017 3.19792 13.4643 3.19563 12.0046C3.19563 7.07535 7.15085 3.07706 11.9963 3.07706C16.8417 3.07706 20.7969 7.07535 20.7969 12.0046V12.0477C20.8475 12.9984 20.5422 13.7616 19.9505 14.1409L19.9498 14.147Z" fill="black"/>
</svg>
