<svg width="24" height="24" viewBox="0 0 24 24" fill="none" xmlns="http://www.w3.org/2000/svg">
<path fill-rule="evenodd" clip-rule="evenodd" d="M21.4828 19.4781C20.3127 20.7594 18.8587 21.7486 17.2373 22.3665C15.6159 22.9843 13.8723 23.2136 12.1463 23.0359C10.4203 22.8582 8.75998 22.2785 7.29848 21.3433C5.83699 20.408 4.61501 19.1433 3.73057 17.6505C2.84614 16.1577 2.32386 14.4784 2.20562 12.7473C2.08739 11.0162 2.37649 9.28151 3.04974 7.68233C3.72299 6.08315 4.76166 4.664 6.08242 3.53872C7.40318 2.41345 8.96927 1.61336 10.6551 1.20264L11.0077 2.64992C9.54804 3.00554 8.19205 3.69829 7.04847 4.6726C5.9049 5.64692 5.00558 6.87568 4.42265 8.26032C3.83972 9.64496 3.5894 11.147 3.69177 12.6458C3.79415 14.1447 4.24636 15.5987 5.01215 16.8912C5.77793 18.1837 6.83597 19.2788 8.1014 20.0886C9.36682 20.8983 10.8044 21.4003 12.2989 21.5541C13.7933 21.708 15.303 21.5095 16.7069 20.9745C18.1108 20.4395 19.3697 19.583 20.3828 18.4736L21.4828 19.4781ZM13.2834 20.603C11.8357 20.603 10.4114 20.238 9.14203 19.5419C7.8727 18.8457 6.79935 17.8408 6.02117 16.6201C5.24299 15.3993 4.78511 14.0021 4.68984 12.5575C4.59457 11.113 4.86499 9.6677 5.4761 8.35531C6.08721 7.04292 7.0193 5.90576 8.1862 5.04893C9.35311 4.19211 10.7172 3.64327 12.1523 3.45314C13.5875 3.26301 15.0474 3.43773 16.3972 3.96115C17.7469 4.48458 18.943 5.33981 19.8747 6.4478L18.6773 7.4548C17.9148 6.54809 16.936 5.84823 15.8315 5.4199C14.727 4.99157 13.5322 4.84859 12.3578 5.00418C11.1834 5.15977 10.0671 5.6089 9.11222 6.31006C8.1573 7.01123 7.39455 7.9418 6.89446 9.01577C6.39437 10.0897 6.17308 11.2724 6.25104 12.4546C6.329 13.6367 6.7037 14.7801 7.34051 15.7791C7.97731 16.7781 8.85567 17.6004 9.8944 18.1701C10.9331 18.7398 12.0987 19.0384 13.2834 19.0384V20.603ZM14.2447 18.0388C15.2975 17.8715 16.2883 17.4322 17.1193 16.7645L16.1606 15.5714C15.5373 16.0722 14.7941 16.4017 14.0044 16.5272C13.2148 16.6527 12.406 16.5699 11.6581 16.287C10.9103 16.0041 10.2492 15.5309 9.74035 14.9142C9.23146 14.2975 8.89238 13.5586 8.75663 12.7706C8.62089 11.9826 8.69318 11.1729 8.96635 10.4214C9.23953 9.66994 9.70413 9.00279 10.3142 8.48595C10.9243 7.96911 11.6587 7.62047 12.4449 7.47451C13.231 7.32855 14.0416 7.39032 14.7966 7.65373L15.3008 6.20862C14.2943 5.85745 13.2136 5.77509 12.1655 5.96968C11.1174 6.16428 10.1382 6.62909 9.32488 7.31814C8.51152 8.0072 7.89211 8.89663 7.52791 9.89849C7.16371 10.9003 7.06733 11.9799 7.24831 13.0304C7.42929 14.081 7.88136 15.0661 8.5598 15.8883C9.23824 16.7105 10.1196 17.3414 11.1166 17.7186C12.1137 18.0958 13.1919 18.2061 14.2447 18.0388Z" fill="black"/>
</svg>
