<svg width="24" height="24" viewBox="0 0 24 24" fill="none" xmlns="http://www.w3.org/2000/svg">
<path opacity="0.4" d="M10.86 1.74093C11.4896 1.11135 12.5103 1.11135 13.1399 1.74093C13.7695 2.37051 13.7695 3.39127 13.1399 4.02085L5.54017 11.6206C5.33031 11.8305 5.33031 12.1707 5.54017 12.3806L7.06012 13.9005C7.26998 14.1104 7.61024 14.1104 7.8201 13.9005L15.4198 6.30077C16.0494 5.67119 17.0702 5.67119 17.6998 6.30077L22.3632 10.9643C22.9356 11.5366 22.9356 12.4646 22.3632 13.0369L13.1399 22.2602C12.5103 22.8898 11.4896 22.8898 10.86 22.2602C10.2304 21.6306 10.2304 20.6099 10.86 19.9803L18.4597 12.3806C18.6696 12.1707 18.6696 11.8305 18.4597 11.6206L16.9398 10.1006C16.7299 9.89078 16.3897 9.89078 16.1798 10.1006L8.58007 17.7004C7.95049 18.33 6.92973 18.33 6.30015 17.7004L1.63667 13.0369C1.06432 12.4646 1.06432 11.5366 1.63667 10.9643L10.86 1.74093Z" fill="black"/>
<path d="M4.02023 10.8606C4.64981 11.4902 4.64981 12.511 4.02023 13.1405C3.39064 13.7701 2.36989 13.7701 1.7403 13.1405C1.11072 12.511 1.11072 11.4902 1.7403 10.8606C2.36989 10.231 3.39064 10.231 4.02023 10.8606Z" fill="black"/>
<path d="M13.1399 1.74093C13.7695 2.37051 13.7695 3.39127 13.1399 4.02085C12.5103 4.65043 11.4896 4.65043 10.86 4.02085C10.2304 3.39127 10.2304 2.37051 10.86 1.74093C11.4896 1.11135 12.5103 1.11135 13.1399 1.74093Z" fill="black"/>
<path d="M17.6998 6.30077C18.3293 6.93036 18.3293 7.95111 17.6998 8.5807C17.0702 9.21028 16.0494 9.21028 15.4198 8.5807C14.7903 7.95111 14.7903 6.93036 15.4198 6.30077C16.0494 5.67119 17.0702 5.67119 17.6998 6.30077Z" fill="black"/>
<path d="M13.1399 10.8606C13.7695 11.4902 13.7695 12.511 13.1399 13.1405C12.5103 13.7701 11.4896 13.7701 10.86 13.1405C10.2304 12.511 10.2304 11.4902 10.86 10.8606C11.4896 10.231 12.5103 10.231 13.1399 10.8606Z" fill="black"/>
<path d="M8.58007 6.30077C9.20965 6.93036 9.20965 7.95111 8.58007 8.5807C7.95049 9.21028 6.92973 9.21028 6.30015 8.5807C5.67056 7.95111 5.67056 6.93036 6.30015 6.30077C6.92973 5.67119 7.95049 5.67119 8.58007 6.30077Z" fill="black"/>
<path d="M8.58007 15.4205C9.20965 16.05 9.20965 17.0708 8.58007 17.7004C7.95049 18.33 6.92973 18.33 6.30015 17.7004C5.67056 17.0708 5.67056 16.05 6.30015 15.4205C6.92973 14.7909 7.95049 14.7909 8.58007 15.4205Z" fill="black"/>
<path d="M13.1399 19.9803C13.7695 20.6099 13.7695 21.6306 13.1399 22.2602C12.5103 22.8898 11.4896 22.8898 10.86 22.2602C10.2304 21.6306 10.2304 20.6099 10.86 19.9803C11.4896 19.3507 12.5103 19.3507 13.1399 19.9803Z" fill="black"/>
<path d="M17.6998 15.4205C18.3293 16.05 18.3293 17.0708 17.6998 17.7004C17.0702 18.33 16.0494 18.33 15.4198 17.7004C14.7903 17.0708 14.7903 16.05 15.4198 15.4205C16.0494 14.7909 17.0702 14.7909 17.6998 15.4205Z" fill="black"/>
<path d="M22.2596 10.8606C22.8892 11.4902 22.8892 12.511 22.2596 13.1405C21.63 13.7701 20.6093 13.7701 19.9797 13.1405C19.3501 12.511 19.3501 11.4902 19.9797 10.8606C20.6093 10.231 21.63 10.231 22.2596 10.8606Z" fill="black"/>
</svg>
