<svg width="24" height="24" viewBox="0 0 24 24" fill="none" xmlns="http://www.w3.org/2000/svg">
<path d="M10.6066 10.9274C11.3314 10.9274 11.919 10.3398 11.919 9.61496C11.919 8.89014 11.3314 8.30255 10.6066 8.30255C9.88176 8.30255 9.29417 8.89014 9.29417 9.61496C9.29417 10.3398 9.88176 10.9274 10.6066 10.9274Z" fill="black"/>
<path fill-rule="evenodd" clip-rule="evenodd" d="M22.914 11.9999C22.914 18.0276 18.0276 22.9139 12 22.9139C5.97236 22.9139 1.086 18.0276 1.086 11.9999C1.086 5.9723 5.97236 1.08594 12 1.08594C18.0276 1.08594 22.914 5.9723 22.914 11.9999ZM13.6495 21.0821C17.9595 20.3045 21.2291 16.534 21.2291 11.9999C21.2291 6.90282 17.0971 2.77079 12 2.77079C6.90288 2.77079 2.77086 6.90282 2.77086 11.9999C2.77086 13.8387 3.3086 15.5519 4.23541 16.9908C4.88517 15.3276 5.01201 13.7978 5.17347 11.8503L5.19651 11.5729C5.33568 9.47193 5.90974 7.72849 9.48359 6.74467C10.3012 6.54945 11.1497 6.62097 12.0118 6.82392C12.7907 6.64029 13.6914 6.6287 14.1727 7.04619C14.3969 7.23561 14.5438 7.40377 14.6288 7.54874C14.6578 7.60866 14.6849 7.67244 14.7081 7.74009L14.7407 7.75298C15.4641 8.03853 16.1797 8.32102 16.869 8.52096C20.5646 9.52991 20.2051 11.5478 18.3999 13.2352C18.1392 13.5047 17.8671 13.7653 17.623 13.9992C17.4417 14.1728 17.2758 14.3316 17.1416 14.4684C15.8145 15.8176 13.5102 18.3953 13.6495 21.0821ZM8.73944 9.59756C8.73944 10.6278 9.57636 11.4628 10.6066 11.4628C11.6368 11.4628 12.4718 10.6278 12.4718 9.59756C12.4718 8.56735 11.6368 7.73236 10.6066 7.73236C9.57443 7.73236 8.73944 8.56735 8.73944 9.59756ZM12.1142 13.4575L12.0949 13.4807C12.5259 13.9678 13.2024 14.192 13.8441 14.2519C14.4955 14.3118 15.1391 14.19 15.7557 14.0315C16.3742 13.8711 16.9734 13.6488 17.5475 13.3782C18.1157 13.098 18.6743 12.781 19.144 12.3538L19.1285 12.3345L19.1247 12.3287C19.0879 12.3596 19.0493 12.3886 19.0087 12.4176C18.8251 12.5432 18.6376 12.6631 18.4462 12.779C18.4443 12.781 18.4424 12.781 18.4404 12.7829C18.1331 12.9549 17.8103 13.1018 17.4856 13.2352C16.9077 13.4749 16.3085 13.6624 15.6997 13.788C15.0889 13.9117 14.4704 13.9562 13.8615 13.9407C13.2546 13.9214 12.6477 13.8015 12.1142 13.4575ZM17.2865 11.0569C17.0642 11.0588 16.8845 11.2386 16.8845 11.4628C16.8845 11.687 17.0681 11.8667 17.2904 11.8648C17.5127 11.8648 17.6924 11.6812 17.6924 11.4589C17.6905 11.2366 17.5107 11.0569 17.2865 11.0569Z" fill="black"/>
</svg>
