<svg width="24" height="24" viewBox="0 0 24 24" fill="none" xmlns="http://www.w3.org/2000/svg">
<path d="M9.02891 16.3194H14.9718C14.3767 19.4618 13.1856 21.5999 12.0003 21.5999C10.8515 21.5999 9.6969 19.5895 9.08458 16.6036L9.02891 16.3213V16.3194ZM3.42582 16.3203H7.55856C7.90791 18.3193 8.502 20.0205 9.27845 21.2101C6.83828 20.4856 4.78432 18.8238 3.56595 16.5882L3.42582 16.3203ZM16.4431 16.3203H20.5748C19.9838 17.4911 19.1599 18.5288 18.1537 19.3696C17.1474 20.2105 15.9801 20.8368 14.7232 21.2101C15.4478 20.0983 16.0131 18.543 16.3692 16.7159L16.4431 16.3203ZM16.7329 10.0797H21.407C21.731 11.6751 21.6461 13.3265 21.1603 14.8802H16.6456C16.7926 13.4951 16.8343 12.1009 16.7703 10.7095L16.732 10.0788L16.7329 10.0797ZM2.59467 10.0788H7.26871C7.1683 11.4919 7.17889 12.9108 7.30038 14.3224L7.35509 14.8792H2.84037C2.35421 13.3256 2.26902 11.6742 2.59275 10.0788H2.59467ZM8.71507 10.0788H15.2885C15.3981 11.4933 15.3862 12.9147 15.253 14.3272L15.1935 14.8792H8.80817C8.64041 13.4417 8.59802 11.9922 8.68148 10.5473L8.71507 10.0788H15.2885H8.71315H8.71507ZM14.8268 2.951L14.7232 2.78778C16.1496 3.21155 17.4584 3.96046 18.5467 4.97566C19.635 5.99086 20.4731 7.24468 20.9952 8.63861H16.5899C16.2866 6.31901 15.6714 4.32585 14.8259 2.95196L14.8268 2.951ZM9.16232 2.8233L9.27941 2.78778C8.4329 4.08487 7.80426 5.9849 7.47026 8.21616L7.41075 8.63861H3.00737C3.52227 7.26406 4.34453 6.02549 5.41131 5.01759C6.47808 4.00968 7.76112 3.25912 9.16232 2.8233ZM12.0003 2.3999C13.2663 2.3999 14.5399 4.84047 15.085 8.33618L15.1301 8.63861H8.87055C9.38978 4.9816 10.6989 2.3999 12.0003 2.3999Z" fill="black"/>
</svg>
