<svg width="64" height="64" viewBox="0 0 64 64" fill="none" xmlns="http://www.w3.org/2000/svg">
<g clip-path="url(#clip0_2306_13215)">
<path fill-rule="evenodd" clip-rule="evenodd" d="M0 31.9999C0 49.6732 14.327 64 32.0001 64C49.6731 64 64.0002 49.6732 64.0002 31.9999C64.0002 14.3269 49.6731 0 32.0001 0C14.327 0 0 14.3269 0 31.9999ZM12.2225 41.5802C10.8902 38.796 10.146 35.6899 10.146 32.4142C10.146 20.4387 20.0914 10.7307 32.3597 10.7307C39.1909 10.7307 45.3016 13.7408 49.3765 18.4761L51.8075 16.485C47.1505 11.0732 40.1668 7.63303 32.3597 7.63303C18.3388 7.63303 6.97267 18.7279 6.97267 32.4142C6.97267 36.1579 7.82314 39.7078 9.34579 42.8896L12.2225 41.5802ZM32.3597 47.1284C24.0349 47.1284 17.2862 40.5408 17.2862 32.4146C17.2862 24.2884 24.0349 17.7008 32.3597 17.7008C36.9952 17.7008 41.1411 19.7439 43.9062 22.9572L46.3378 20.9655C42.9906 17.0758 37.971 14.6031 32.3597 14.6031C22.2822 14.6031 14.1128 22.5776 14.1128 32.4146C14.1128 42.2516 22.2822 50.2261 32.3597 50.2261V47.1284ZM32.3596 39.3834C34.5554 39.3834 36.5193 38.4157 37.829 36.8936L40.0505 39.6874C38.1038 41.6485 35.3781 42.8683 32.3596 42.8683C26.4445 42.8683 21.6495 38.1876 21.6495 32.4138C21.6495 26.6399 26.4445 21.9592 32.3596 21.9592C35.6532 21.9592 38.5991 23.4109 40.5637 25.694L37.829 27.9339C36.5193 26.4118 34.5554 25.444 32.3596 25.444C28.4163 25.444 25.2195 28.5645 25.2195 32.4138C25.2195 36.2631 28.4163 39.3834 32.3596 39.3834Z" fill="black"/>
</g>
<defs>
<clipPath id="clip0_2306_13215">
<rect width="64" height="64" fill="white"/>
</clipPath>
</defs>
</svg>
