<svg width="32" height="32" viewBox="0 0 32 32" fill="none" xmlns="http://www.w3.org/2000/svg">
<path d="M12.6732 11.7537H12.5696L12.4964 11.827L9.16308 15.1602L8.98631 15.337L9.16306 15.5138L15.8287 22.1804L16.0055 22.3572L16.1822 22.1805L22.85 15.5138L23.0268 15.337L22.85 15.1602L19.5167 11.827L19.4434 11.7537H19.3399H12.6732ZM16.0065 29.087C8.7808 29.087 2.92319 23.2295 2.92319 16.0037C2.92319 8.77802 8.7808 2.92041 16.0065 2.92041C23.2322 2.92041 29.0899 8.77802 29.0899 16.0037C29.0899 23.2295 23.2322 29.087 16.0065 29.087Z" fill="url(#paint0_linear_2225_11007)" stroke="black" stroke-width="0.5"/>
<defs>
<linearGradient id="paint0_linear_2225_11007" x1="16.0065" y1="2.67041" x2="16.0065" y2="29.337" gradientUnits="userSpaceOnUse">
<stop stop-color="#FFC012"/>
<stop offset="1" stop-color="#FFC012" stop-opacity="0.1"/>
</linearGradient>
</defs>
</svg>
