<svg width="32" height="32" viewBox="0 0 32 32" fill="none" xmlns="http://www.w3.org/2000/svg">
<path d="M15.7565 8.00374V11.7537H10.6732H10.4232V12.0037V14.6703V14.9203H10.6732H22.6732H23.2768L22.85 14.4936L16.1833 7.82697L15.7565 7.40019V8.00374ZM9.33984 17.087H8.73628L9.16306 17.5138L15.8298 24.1805L16.2565 24.6072V24.0037V20.2537H21.3399H21.5899V20.0037V17.337V17.087H21.3399H9.33984ZM16.0065 29.087C8.78079 29.087 2.92317 23.2295 2.92317 16.0037C2.92317 8.77802 8.78079 2.92041 16.0065 2.92041C23.2322 2.92041 29.0899 8.77802 29.0899 16.0037C29.0899 23.2295 23.2322 29.087 16.0065 29.087Z" fill="url(#paint0_linear_2225_11016)" stroke="#161617" stroke-width="0.5"/>
<defs>
<linearGradient id="paint0_linear_2225_11016" x1="16.0065" y1="2.67041" x2="16.0065" y2="29.337" gradientUnits="userSpaceOnUse">
<stop stop-color="#F9DDA1"/>
<stop offset="1" stop-color="#F9DDA1" stop-opacity="0.1"/>
</linearGradient>
</defs>
</svg>
