<svg width="24" height="24" viewBox="0 0 24 24" fill="none" xmlns="http://www.w3.org/2000/svg">
<path fill-rule="evenodd" clip-rule="evenodd" d="M12 3.75C7.44321 3.75 3.75 7.44321 3.75 12C3.75 16.5568 7.44321 20.25 12 20.25C16.5568 20.25 20.25 16.5568 20.25 12C20.25 7.44321 16.5568 3.75 12 3.75ZM2.25 12C2.25 6.61479 6.61479 2.25 12 2.25C17.3852 2.25 21.75 6.61479 21.75 12C21.75 17.3852 17.3852 21.75 12 21.75C6.61479 21.75 2.25 17.3852 2.25 12ZM8.48099 9.34869C8.48099 7.4575 10.1043 6.01016 12 6.01016C13.8957 6.01016 15.5191 7.4575 15.5191 9.34869C15.5191 10.8023 14.5173 11.5591 13.7996 12.0113L13.7987 12.0119C13.1327 12.4303 12.75 12.8086 12.75 13.4476V13.7712C12.75 14.1854 12.4142 14.5212 12 14.5212C11.5858 14.5212 11.25 14.1854 11.25 13.7712V13.4476C11.25 11.9722 12.2653 11.2038 13.0004 10.742C13.6504 10.3323 14.0191 9.96575 14.0191 9.34869C14.0191 8.37956 13.1641 7.51016 12 7.51016C10.8359 7.51016 9.98099 8.37956 9.98099 9.34869C9.98099 9.76291 9.6452 10.0987 9.23099 10.0987C8.81677 10.0987 8.48099 9.76291 8.48099 9.34869ZM11.9987 15.7167C11.4079 15.7167 10.9236 16.1961 10.9265 16.793C10.9279 17.3845 11.4081 17.8638 12 17.8638C12.5929 17.8638 13.0736 17.3831 13.0736 16.7902C13.0736 16.1955 12.5909 15.7167 11.9987 15.7167Z" fill="black"/>
</svg>
