<svg width="32" height="32" viewBox="0 0 32 32" fill="none" xmlns="http://www.w3.org/2000/svg">
<path d="M8.66666 14.4167C5.85921 14.4167 3.58332 12.1408 3.58332 9.33333C3.58332 6.52588 5.85921 4.25 8.66666 4.25C11.4741 4.25 13.75 6.52588 13.75 9.33333C13.75 12.1408 11.4741 14.4167 8.66666 14.4167ZM2.91666 27.75V22C2.91666 18.8243 5.49102 16.25 8.66666 16.25C11.8423 16.25 14.4167 18.8243 14.4167 22V27.75H2.91666ZM23.3333 14.4167C20.5259 14.4167 18.25 12.1408 18.25 9.33333C18.25 6.52589 20.5259 4.25 23.3333 4.25C26.1407 4.25 28.4167 6.52589 28.4167 9.33333C28.4167 12.1408 26.1407 14.4167 23.3333 14.4167ZM17.5833 27.75V22C17.5833 18.8243 20.1577 16.25 23.3333 16.25C26.509 16.25 29.0833 18.8243 29.0833 22V27.75H17.5833Z" fill="url(#paint0_linear_2225_11018)" stroke="#161617" stroke-width="0.5"/>
<defs>
<linearGradient id="paint0_linear_2225_11018" x1="16" y1="4" x2="16" y2="28" gradientUnits="userSpaceOnUse">
<stop stop-color="#F9DDA1"/>
<stop offset="1" stop-color="#F9DDA1" stop-opacity="0.1"/>
</linearGradient>
</defs>
</svg>
