<?xml version="1.0" encoding="UTF-8" standalone="no"?>
<!-- Created with Keyshape -->
<svg xmlns="http://www.w3.org/2000/svg" width="64" height="64" viewBox="0 0 64 64" fill="none">
    <style>
@keyframes a0_t { 0% { transform: translate(32.000039px,32.000001px) rotate(0deg) translate(-10px,-10.000002px); } 100% { transform: translate(32.000039px,32.000001px) rotate(1080deg) translate(-10px,-10.000002px); } }
@keyframes a1_t { 0% { transform: translate(31.999946px,31.999997px) rotate(0deg) translate(-17.999962px,-18.000005px); } 100% { transform: translate(31.999946px,31.999997px) rotate(720deg) translate(-17.999962px,-18.000005px); } }
@keyframes a2_t { 0% { transform: translate(31.999976px,31.9999px) rotate(0deg) translate(-25.999996px,-25.999972px); } 100% { transform: translate(31.999976px,31.9999px) rotate(360deg) translate(-25.999996px,-25.999972px); } }
    </style>
    <g transform="translate(32,32) translate(-10,-10)" style="animation: 3s linear infinite both a0_t;">
        <rect width="20" height="20" fill="none" rx="0" stroke="none" transform="translate(10.5,12.9672) translate(-10.5,-12.9672)"/>
        <path d="M39.8801,25.8434C38.5965,24.2004,36.8314,22.9997,34.8318,22.4093C32.8322,21.8189,30.698,21.8683,28.7278,22.5505C26.7576,23.2327,25.05,24.5137,23.8437,26.2143C22.6374,27.9149,21.9928,29.95,22.0001,32.0349C22.0073,34.1199,22.6661,36.1504,23.8843,37.8425C25.1024,39.5346,26.819,40.8036,28.7939,41.4721C30.7688,42.1406,32.9032,42.175,34.8987,41.5707C36.8941,40.9663,38.6508,39.7533,39.9229,38.1015L37.3876,36.149C36.5225,37.2723,35.328,38.0971,33.9711,38.5081C32.6142,38.919,31.1628,38.8956,29.8198,38.441C28.4769,37.9865,27.3096,37.1235,26.4813,35.9729C25.653,34.8223,25.205,33.4415,25.2,32.0237C25.1951,30.606,25.6334,29.2221,26.4537,28.0657C27.274,26.9093,28.4352,26.0383,29.7749,25.5743C31.1146,25.1104,32.5659,25.0769,33.9256,25.4783C35.2854,25.8798,36.4856,26.6963,37.3585,27.8135L39.8801,25.8434Z" fill="#616161" transform="translate(8.96143,10) translate(-30.9615,-32)"/>
    </g>
    <g transform="translate(31.9999,32) translate(-18,-18)" style="animation: 3s linear infinite both a1_t;">
        <rect width="35.9998" height="35.9998" fill="none" rx="0" stroke="none" transform="translate(18.5,20.9671) translate(-18.4999,-20.9671)"/>
        <path d="M46.1842,20.9181C44.3043,18.5119,41.8431,16.6235,39.0323,15.4306C36.2215,14.2376,33.1534,13.7793,30.1167,14.0988C27.0799,14.4183,24.1744,15.505,21.6734,17.2568C19.1724,19.0086,17.1581,21.3679,15.8201,24.1126C14.4821,26.8574,13.8643,29.8974,14.0249,32.9466C14.1855,35.9959,15.1192,38.9542,16.7381,41.5432C18.3569,44.1322,20.6079,46.2669,23.279,47.7463C25.9502,49.2257,28.9538,50.0012,32.0073,50L32.006,46.76C29.5021,46.761,27.0392,46.1251,24.8488,44.9119C22.6584,43.6988,20.8127,41.9484,19.4852,39.8254C18.1577,37.7024,17.3921,35.2766,17.2604,32.7762C17.1287,30.2758,17.6353,27.783,18.7325,25.5323C19.8296,23.2817,21.4813,21.3471,23.5322,19.9106C25.583,18.4741,27.9655,17.583,30.4557,17.321C32.9458,17.059,35.4616,17.4348,37.7665,18.4131C40.0714,19.3913,42.0895,20.9398,43.631,22.9128L46.1842,20.9181Z" fill="#616161" transform="translate(16.0921,18) translate(-30.0921,-32)"/>
    </g>
    <g transform="translate(32,31.9999) translate(-26,-26)" style="animation: 3s linear infinite both a2_t;">
        <rect width="51.9999" height="51.9999" fill="none" rx="0" stroke="none" transform="translate(26.5,28.9672) translate(-26.5,-28.9672)"/>
        <path d="M52.4883,15.9928C48.5467,10.9478,42.8823,7.53442,36.5802,6.4066C30.2781,5.27878,23.7814,6.51582,18.3348,9.88073C12.8882,13.2456,8.87453,18.5018,7.06278,24.6423C5.25104,30.7829,5.76858,37.3759,8.51625,43.1586L11.3343,41.8195C8.91635,36.7308,8.46091,30.9289,10.0553,25.5253C11.6496,20.1216,15.1816,15.4962,19.9746,12.535C24.7677,9.57392,30.4847,8.48533,36.0306,9.47781C41.5764,10.4703,46.5611,13.4741,50.0297,17.9137L52.4883,15.9928Z" fill="#616161" transform="translate(23.2442,18.5793) translate(-29.2441,-24.5793)"/>
    </g>
</svg>
