<svg width="32" height="32" viewBox="0 0 32 32" fill="none" xmlns="http://www.w3.org/2000/svg">
<path d="M2.66668 25.5833H2.91668V25.3333V10.6667V10.4167H2.66668H1.58334V8.25H5.33334H5.58334V8V5.33333C5.58334 4.73503 6.06837 4.25 6.66668 4.25H25.3333C25.9317 4.25 26.4167 4.73503 26.4167 5.33333V8V8.25H26.6667H30.4167V10.4167H29.3333H29.0833V10.6667V25.3333V25.5833H29.3333H30.4167V27.75H1.58334V25.5833H2.66668ZM17.3333 25.5833H17.5833V25.3333V16V15.75H17.3333H14.6667H14.4167V16V25.3333V25.5833H14.6667H17.3333ZM10.6667 25.5833H10.9167V25.3333V16V15.75H10.6667H8.00001H7.75001V16V25.3333V25.5833H8.00001H10.6667ZM24 25.5833H24.25V25.3333V16V15.75H24H21.3333H21.0833V16V25.3333V25.5833H21.3333H24ZM8.00001 6.41667H7.75001V6.66667V8V8.25H8.00001H24H24.25V8V6.66667V6.41667H24H8.00001Z" fill="url(#paint0_linear_2225_11005)" stroke="black" stroke-width="0.5"/>
<defs>
<linearGradient id="paint0_linear_2225_11005" x1="16" y1="4" x2="16" y2="28" gradientUnits="userSpaceOnUse">
<stop stop-color="#FFC012"/>
<stop offset="1" stop-color="#FFC012" stop-opacity="0.1"/>
</linearGradient>
</defs>
</svg>
